<mxfile host="app.diagrams.net" agent="Mozilla/5.0 (Windows NT 10.0; Win64; x64) AppleWebKit/537.36 (KHTML, like Gecko) Chrome/129.0.0.0 Safari/537.36" version="24.7.17">
  <diagram name="Page-1" id="RY12ZFPKIb69ZZycmzWx">
    <mxGraphModel dx="990" dy="1414" grid="1" gridSize="10" guides="1" tooltips="1" connect="1" arrows="1" fold="1" page="1" pageScale="1" pageWidth="850" pageHeight="1100" math="0" shadow="0">
      <root>
        <mxCell id="0" />
        <mxCell id="1" parent="0" />
        <mxCell id="ZxNVpTJgtPfXPzgYadaZ-14" value="" style="group" vertex="1" connectable="0" parent="1">
          <mxGeometry x="300" y="215" width="200" height="160" as="geometry" />
        </mxCell>
        <mxCell id="ZxNVpTJgtPfXPzgYadaZ-6" value="" style="rounded=0;whiteSpace=wrap;html=1;" vertex="1" parent="ZxNVpTJgtPfXPzgYadaZ-14">
          <mxGeometry width="200" height="160" as="geometry" />
        </mxCell>
        <mxCell id="ZxNVpTJgtPfXPzgYadaZ-7" value="Structures" style="text;html=1;align=center;verticalAlign=middle;whiteSpace=wrap;rounded=0;" vertex="1" parent="ZxNVpTJgtPfXPzgYadaZ-14">
          <mxGeometry x="70" y="5" width="60" height="30" as="geometry" />
        </mxCell>
        <mxCell id="ZxNVpTJgtPfXPzgYadaZ-8" value="Structure_Id(BIGINT)" style="text;html=1;align=center;verticalAlign=middle;whiteSpace=wrap;rounded=0;" vertex="1" parent="ZxNVpTJgtPfXPzgYadaZ-14">
          <mxGeometry x="70" y="35" width="60" height="30" as="geometry" />
        </mxCell>
        <mxCell id="ZxNVpTJgtPfXPzgYadaZ-9" value="Client_Ref(BIGINT)" style="text;html=1;align=center;verticalAlign=middle;whiteSpace=wrap;rounded=0;" vertex="1" parent="ZxNVpTJgtPfXPzgYadaZ-14">
          <mxGeometry x="70" y="65" width="60" height="30" as="geometry" />
        </mxCell>
        <mxCell id="ZxNVpTJgtPfXPzgYadaZ-10" value="Date(datetime)" style="text;html=1;align=center;verticalAlign=middle;whiteSpace=wrap;rounded=0;" vertex="1" parent="ZxNVpTJgtPfXPzgYadaZ-14">
          <mxGeometry x="70" y="90" width="60" height="30" as="geometry" />
        </mxCell>
        <mxCell id="ZxNVpTJgtPfXPzgYadaZ-11" value="Location(String)" style="text;html=1;align=center;verticalAlign=middle;whiteSpace=wrap;rounded=0;" vertex="1" parent="ZxNVpTJgtPfXPzgYadaZ-14">
          <mxGeometry x="70" y="125" width="60" height="30" as="geometry" />
        </mxCell>
        <mxCell id="ZxNVpTJgtPfXPzgYadaZ-16" value="" style="group" vertex="1" connectable="0" parent="1">
          <mxGeometry x="60" y="240" width="170" height="110" as="geometry" />
        </mxCell>
        <mxCell id="ZxNVpTJgtPfXPzgYadaZ-2" value="" style="rounded=0;whiteSpace=wrap;html=1;" vertex="1" parent="ZxNVpTJgtPfXPzgYadaZ-16">
          <mxGeometry width="170" height="110" as="geometry" />
        </mxCell>
        <mxCell id="ZxNVpTJgtPfXPzgYadaZ-3" value="Clients" style="text;html=1;align=center;verticalAlign=middle;whiteSpace=wrap;rounded=0;" vertex="1" parent="ZxNVpTJgtPfXPzgYadaZ-16">
          <mxGeometry x="50" width="60" height="30" as="geometry" />
        </mxCell>
        <mxCell id="ZxNVpTJgtPfXPzgYadaZ-4" value="Client_Id(BIGINT)" style="text;html=1;align=center;verticalAlign=middle;whiteSpace=wrap;rounded=0;" vertex="1" parent="ZxNVpTJgtPfXPzgYadaZ-16">
          <mxGeometry x="50" y="40" width="60" height="30" as="geometry" />
        </mxCell>
        <mxCell id="ZxNVpTJgtPfXPzgYadaZ-13" style="edgeStyle=orthogonalEdgeStyle;rounded=0;orthogonalLoop=1;jettySize=auto;html=1;" edge="1" parent="ZxNVpTJgtPfXPzgYadaZ-16" source="ZxNVpTJgtPfXPzgYadaZ-6" target="ZxNVpTJgtPfXPzgYadaZ-2">
          <mxGeometry relative="1" as="geometry" />
        </mxCell>
        <mxCell id="ZxNVpTJgtPfXPzgYadaZ-24" value="" style="group" vertex="1" connectable="0" parent="1">
          <mxGeometry x="580" y="215" width="200" height="160" as="geometry" />
        </mxCell>
        <mxCell id="ZxNVpTJgtPfXPzgYadaZ-25" value="" style="rounded=0;whiteSpace=wrap;html=1;" vertex="1" parent="ZxNVpTJgtPfXPzgYadaZ-24">
          <mxGeometry width="200" height="160" as="geometry" />
        </mxCell>
        <mxCell id="ZxNVpTJgtPfXPzgYadaZ-26" value="Services" style="text;html=1;align=center;verticalAlign=middle;whiteSpace=wrap;rounded=0;" vertex="1" parent="ZxNVpTJgtPfXPzgYadaZ-24">
          <mxGeometry x="70" y="5" width="60" height="30" as="geometry" />
        </mxCell>
        <mxCell id="ZxNVpTJgtPfXPzgYadaZ-27" value="Service_Id(BIGINT)" style="text;html=1;align=center;verticalAlign=middle;whiteSpace=wrap;rounded=0;" vertex="1" parent="ZxNVpTJgtPfXPzgYadaZ-24">
          <mxGeometry x="70" y="35" width="60" height="30" as="geometry" />
        </mxCell>
        <mxCell id="ZxNVpTJgtPfXPzgYadaZ-28" value="Structure_Ref(BIGINT)" style="text;html=1;align=center;verticalAlign=middle;whiteSpace=wrap;rounded=0;" vertex="1" parent="ZxNVpTJgtPfXPzgYadaZ-24">
          <mxGeometry x="70" y="65" width="60" height="30" as="geometry" />
        </mxCell>
        <mxCell id="ZxNVpTJgtPfXPzgYadaZ-29" value="Price(Decimal)" style="text;html=1;align=center;verticalAlign=middle;whiteSpace=wrap;rounded=0;" vertex="1" parent="ZxNVpTJgtPfXPzgYadaZ-24">
          <mxGeometry x="70" y="90" width="60" height="30" as="geometry" />
        </mxCell>
        <mxCell id="ZxNVpTJgtPfXPzgYadaZ-30" value="Name(string(50))" style="text;html=1;align=center;verticalAlign=middle;whiteSpace=wrap;rounded=0;" vertex="1" parent="ZxNVpTJgtPfXPzgYadaZ-24">
          <mxGeometry x="70" y="125" width="60" height="30" as="geometry" />
        </mxCell>
        <mxCell id="ZxNVpTJgtPfXPzgYadaZ-34" style="edgeStyle=orthogonalEdgeStyle;rounded=0;orthogonalLoop=1;jettySize=auto;html=1;entryX=1;entryY=0.5;entryDx=0;entryDy=0;" edge="1" parent="1" source="ZxNVpTJgtPfXPzgYadaZ-25" target="ZxNVpTJgtPfXPzgYadaZ-6">
          <mxGeometry relative="1" as="geometry" />
        </mxCell>
        <mxCell id="ZxNVpTJgtPfXPzgYadaZ-35" value="" style="group" vertex="1" connectable="0" parent="1">
          <mxGeometry x="300" y="410" width="200" height="130" as="geometry" />
        </mxCell>
        <mxCell id="ZxNVpTJgtPfXPzgYadaZ-36" value="" style="rounded=0;whiteSpace=wrap;html=1;" vertex="1" parent="ZxNVpTJgtPfXPzgYadaZ-35">
          <mxGeometry width="200" height="130" as="geometry" />
        </mxCell>
        <mxCell id="ZxNVpTJgtPfXPzgYadaZ-37" value="StructurePanels" style="text;html=1;align=center;verticalAlign=middle;whiteSpace=wrap;rounded=0;" vertex="1" parent="ZxNVpTJgtPfXPzgYadaZ-35">
          <mxGeometry x="70" y="4.0625" width="60" height="24.375" as="geometry" />
        </mxCell>
        <mxCell id="ZxNVpTJgtPfXPzgYadaZ-38" value="Panel_Id(BIGINT)" style="text;html=1;align=center;verticalAlign=middle;whiteSpace=wrap;rounded=0;" vertex="1" parent="ZxNVpTJgtPfXPzgYadaZ-35">
          <mxGeometry x="70" y="39.9975" width="60" height="24.375" as="geometry" />
        </mxCell>
        <mxCell id="ZxNVpTJgtPfXPzgYadaZ-39" value="Structure_Ref(BIGINT)" style="text;html=1;align=center;verticalAlign=middle;whiteSpace=wrap;rounded=0;" vertex="1" parent="ZxNVpTJgtPfXPzgYadaZ-35">
          <mxGeometry x="70" y="65.6325" width="60" height="24.375" as="geometry" />
        </mxCell>
        <mxCell id="ZxNVpTJgtPfXPzgYadaZ-40" value="Amount(Decimal)" style="text;html=1;align=center;verticalAlign=middle;whiteSpace=wrap;rounded=0;" vertex="1" parent="ZxNVpTJgtPfXPzgYadaZ-35">
          <mxGeometry x="70" y="90.005" width="60" height="24.375" as="geometry" />
        </mxCell>
        <mxCell id="ZxNVpTJgtPfXPzgYadaZ-50" value="" style="group" vertex="1" connectable="0" parent="1">
          <mxGeometry x="300" y="590" width="200" height="160" as="geometry" />
        </mxCell>
        <mxCell id="ZxNVpTJgtPfXPzgYadaZ-51" value="" style="rounded=0;whiteSpace=wrap;html=1;" vertex="1" parent="ZxNVpTJgtPfXPzgYadaZ-50">
          <mxGeometry width="200" height="160" as="geometry" />
        </mxCell>
        <mxCell id="ZxNVpTJgtPfXPzgYadaZ-52" value="Panel&lt;span style=&quot;background-color: initial;&quot;&gt;Data&lt;/span&gt;" style="text;html=1;align=center;verticalAlign=middle;whiteSpace=wrap;rounded=0;" vertex="1" parent="ZxNVpTJgtPfXPzgYadaZ-50">
          <mxGeometry x="70" y="5" width="60" height="30" as="geometry" />
        </mxCell>
        <mxCell id="ZxNVpTJgtPfXPzgYadaZ-53" value="Panel_Id(BIGINT)" style="text;html=1;align=center;verticalAlign=middle;whiteSpace=wrap;rounded=0;" vertex="1" parent="ZxNVpTJgtPfXPzgYadaZ-50">
          <mxGeometry x="70" y="35" width="60" height="30" as="geometry" />
        </mxCell>
        <mxCell id="ZxNVpTJgtPfXPzgYadaZ-54" value="Dimensions(string(50))" style="text;html=1;align=center;verticalAlign=middle;whiteSpace=wrap;rounded=0;" vertex="1" parent="ZxNVpTJgtPfXPzgYadaZ-50">
          <mxGeometry x="70" y="65" width="60" height="30" as="geometry" />
        </mxCell>
        <mxCell id="ZxNVpTJgtPfXPzgYadaZ-55" value="UnitPrice(Decimal)" style="text;html=1;align=center;verticalAlign=middle;whiteSpace=wrap;rounded=0;" vertex="1" parent="ZxNVpTJgtPfXPzgYadaZ-50">
          <mxGeometry x="70" y="90" width="60" height="30" as="geometry" />
        </mxCell>
        <mxCell id="ZxNVpTJgtPfXPzgYadaZ-56" value="TotalPrice(Decimal)" style="text;html=1;align=center;verticalAlign=middle;whiteSpace=wrap;rounded=0;" vertex="1" parent="ZxNVpTJgtPfXPzgYadaZ-50">
          <mxGeometry x="70" y="125" width="60" height="30" as="geometry" />
        </mxCell>
        <mxCell id="ZxNVpTJgtPfXPzgYadaZ-57" style="edgeStyle=orthogonalEdgeStyle;rounded=0;orthogonalLoop=1;jettySize=auto;html=1;entryX=0.5;entryY=0;entryDx=0;entryDy=0;" edge="1" parent="1" source="ZxNVpTJgtPfXPzgYadaZ-36" target="ZxNVpTJgtPfXPzgYadaZ-52">
          <mxGeometry relative="1" as="geometry" />
        </mxCell>
        <mxCell id="ZxNVpTJgtPfXPzgYadaZ-66" style="edgeStyle=orthogonalEdgeStyle;rounded=0;orthogonalLoop=1;jettySize=auto;html=1;entryX=0.5;entryY=0;entryDx=0;entryDy=0;" edge="1" parent="1" source="ZxNVpTJgtPfXPzgYadaZ-51" target="ZxNVpTJgtPfXPzgYadaZ-60">
          <mxGeometry relative="1" as="geometry" />
        </mxCell>
        <mxCell id="ZxNVpTJgtPfXPzgYadaZ-68" value="" style="group" vertex="1" connectable="0" parent="1">
          <mxGeometry x="300" y="790" width="200" height="140" as="geometry" />
        </mxCell>
        <mxCell id="ZxNVpTJgtPfXPzgYadaZ-59" value="" style="rounded=0;whiteSpace=wrap;html=1;" vertex="1" parent="ZxNVpTJgtPfXPzgYadaZ-68">
          <mxGeometry width="200" height="140" as="geometry" />
        </mxCell>
        <mxCell id="ZxNVpTJgtPfXPzgYadaZ-60" value="PanelComponents" style="text;html=1;align=center;verticalAlign=middle;whiteSpace=wrap;rounded=0;" vertex="1" parent="ZxNVpTJgtPfXPzgYadaZ-68">
          <mxGeometry x="70" y="5" width="60" height="30" as="geometry" />
        </mxCell>
        <mxCell id="ZxNVpTJgtPfXPzgYadaZ-61" value="Component_Id(BIGINT)" style="text;html=1;align=center;verticalAlign=middle;whiteSpace=wrap;rounded=0;" vertex="1" parent="ZxNVpTJgtPfXPzgYadaZ-68">
          <mxGeometry x="70" y="35" width="60" height="30" as="geometry" />
        </mxCell>
        <mxCell id="ZxNVpTJgtPfXPzgYadaZ-62" value="Panel_Ref(BIGINT)" style="text;html=1;align=center;verticalAlign=middle;whiteSpace=wrap;rounded=0;" vertex="1" parent="ZxNVpTJgtPfXPzgYadaZ-68">
          <mxGeometry x="70" y="65" width="60" height="30" as="geometry" />
        </mxCell>
        <mxCell id="ZxNVpTJgtPfXPzgYadaZ-63" value="Amount(Decimal)" style="text;html=1;align=center;verticalAlign=middle;whiteSpace=wrap;rounded=0;" vertex="1" parent="ZxNVpTJgtPfXPzgYadaZ-68">
          <mxGeometry x="70" y="90" width="60" height="30" as="geometry" />
        </mxCell>
        <mxCell id="ZxNVpTJgtPfXPzgYadaZ-69" value="" style="group" vertex="1" connectable="0" parent="1">
          <mxGeometry x="40" y="920" width="200" height="140" as="geometry" />
        </mxCell>
        <mxCell id="ZxNVpTJgtPfXPzgYadaZ-70" value="" style="rounded=0;whiteSpace=wrap;html=1;" vertex="1" parent="ZxNVpTJgtPfXPzgYadaZ-69">
          <mxGeometry width="200" height="140" as="geometry" />
        </mxCell>
        <mxCell id="ZxNVpTJgtPfXPzgYadaZ-71" value="Components" style="text;html=1;align=center;verticalAlign=middle;whiteSpace=wrap;rounded=0;" vertex="1" parent="ZxNVpTJgtPfXPzgYadaZ-69">
          <mxGeometry x="70" y="5" width="60" height="30" as="geometry" />
        </mxCell>
        <mxCell id="ZxNVpTJgtPfXPzgYadaZ-72" value="Component_Id(BIGINT)" style="text;html=1;align=center;verticalAlign=middle;whiteSpace=wrap;rounded=0;" vertex="1" parent="ZxNVpTJgtPfXPzgYadaZ-69">
          <mxGeometry x="70" y="35" width="60" height="30" as="geometry" />
        </mxCell>
        <mxCell id="ZxNVpTJgtPfXPzgYadaZ-73" value="Name(STRING)" style="text;html=1;align=center;verticalAlign=middle;whiteSpace=wrap;rounded=0;" vertex="1" parent="ZxNVpTJgtPfXPzgYadaZ-69">
          <mxGeometry x="70" y="65" width="60" height="30" as="geometry" />
        </mxCell>
        <mxCell id="ZxNVpTJgtPfXPzgYadaZ-74" value="UnitPrice(Decimal)" style="text;html=1;align=center;verticalAlign=middle;whiteSpace=wrap;rounded=0;" vertex="1" parent="ZxNVpTJgtPfXPzgYadaZ-69">
          <mxGeometry x="70" y="90" width="60" height="30" as="geometry" />
        </mxCell>
      </root>
    </mxGraphModel>
  </diagram>
</mxfile>
